# This file uses centimeters as units for non-parametric coordinates.

mtllib wh.mtl
g default
v -4.164493 0.000000 4.192304
v 4.164494 0.000000 4.192304
v -2.937608 3.868069 2.931033
v 2.937608 3.868069 2.931033
v -2.937608 3.868069 -2.976528
v 2.937608 3.868069 -2.976528
v -3.799223 0.000000 -3.799223
v 3.799223 0.000000 -3.799223
v 1.058115 3.868069 -2.976528
v 1.629933 0.000000 -3.799223
v 1.266407 0.000000 3.799223
v -1.058115 3.868069 -2.976528
v -1.629933 0.000000 -3.799223
v -1.266408 0.000000 3.799223
v 1.058115 3.868069 0.443445
v -1.058115 3.868069 0.443445
v -3.799223 0.000000 1.525664
v 3.799223 0.000000 1.525664
v 3.461343 1.510873 3.461343
v 1.258591 1.510873 3.461343
v -1.258591 1.510873 3.461343
v -3.461343 1.510873 3.461343
v -3.461343 1.510873 1.525664
v 3.461343 1.510873 1.525664
v -0.822123 4.921420 -0.052168
v -0.822123 4.529238 -3.408965
v 0.822123 4.921420 -0.052168
v 0.822123 4.529238 -3.408965
v 1.266407 0.000000 -4.947515
v -1.266408 0.000000 -4.947515
v -1.266408 0.000000 4.192304
v -1.258591 1.510873 3.844762
v -3.826613 1.510873 3.844762
v -4.186811 0.000000 1.525664
v -3.848931 1.510873 1.525664
v 4.186811 0.000000 1.525664
v 3.848931 1.510873 1.525664
v 3.826613 1.510873 3.844762
v 1.266407 0.000000 4.192304
v 1.258591 1.510873 3.844762
v -0.300000 -0.000000 3.799223
v 0.300000 -0.000000 3.799223
v -0.300000 3.868069 2.931033
v -0.300000 3.868069 0.443445
v 0.300000 3.868069 2.931033
v 0.300000 3.868069 0.443445
v -0.300000 0.000000 4.192304
v 0.300000 -0.000000 4.192304
v -0.300000 4.322067 3.206742
v -0.312488 4.350627 0.195638
v 0.300000 4.322067 3.206742
v 0.312488 4.350627 0.195638
vt 0.813107 0.718652
vt 0.813107 0.545433
vt 0.903412 0.544966
vt 0.903412 0.698457
vt 0.071345 0.187800
vt 0.071345 0.028504
vt 0.161600 0.028504
vt 0.161600 0.167039
vt 0.801976 0.860775
vt 0.642679 0.860775
vt 0.663441 0.770521
vt 0.801976 0.770521
vt 0.808197 0.703107
vt 0.717892 0.702640
vt 0.717892 0.529420
vt 0.808197 0.549616
vt 0.660673 0.544010
vt 0.661410 0.366337
vt 0.696813 0.366337
vt 0.697550 0.544010
vt 0.881938 0.356491
vt 0.881938 0.154696
vt 0.992837 0.007916
vt 0.992837 0.356491
vt 0.837205 0.154696
vt 0.837205 0.007916
vt 0.777840 0.360136
vt 0.777840 0.161396
vt 0.875188 0.161396
vt 0.875188 0.360136
vt 0.660664 0.007916
vt 0.771563 0.154696
vt 0.771563 0.356491
vt 0.660664 0.356491
vt 0.816296 0.007916
vt 0.816296 0.154696
vt 0.419255 0.447488
vt 0.419255 0.129470
vt 0.509488 0.129470
vt 0.650267 0.045537
vt 0.650267 0.398355
vt 0.509488 0.013866
vt 0.265480 0.328923
vt 0.175246 0.328923
vt 0.175246 0.010904
vt 0.406259 0.412855
vt 0.406259 0.060038
vt 0.265480 0.444527
vt 0.407871 0.619532
vt 0.548681 0.519233
vt 0.548681 0.650818
vt 0.407871 0.461971
vt 0.638935 0.461971
vt 0.638935 0.519701
vt 0.016871 0.287973
vt 0.016871 0.029698
vt 0.052726 0.029698
vt 0.052726 0.287973
vt 0.435392 0.688239
vt 0.566976 0.688239
vt 0.466678 0.829049
vt 0.624239 0.597985
vt 0.624239 0.829049
vt 0.566510 0.597985
vt 0.855458 0.722432
vt 0.983777 0.722432
vt 0.944737 0.986517
vt 0.796633 0.986517
vt 0.706020 0.504656
vt 0.706020 0.404952
vt 0.980665 0.378011
vt 0.980665 0.531596
vt 0.031550 0.679572
vt 0.179824 0.679572
vt 0.247797 0.984725
vt 0.076661 0.984725
vt 0.091836 0.589631
vt 0.295221 0.626954
vt 0.254252 0.684187
vt 0.058904 0.624231
vt 0.085124 0.350620
vt 0.016835 0.338088
vt 0.921561 0.603747
vt 0.921561 0.556778
vt 0.951458 0.602973
vt 0.986821 0.571399
vt 0.986821 0.673267
vt 0.951458 0.641693
vt 0.921561 0.687888
vt 0.921561 0.640920
vt 0.155434 0.233352
vt 0.155434 0.440133
vt 0.115458 0.466279
vt 0.091745 0.263318
vt 0.389307 0.489875
vt 0.389307 0.559304
vt 0.201140 0.345062
vt 0.221077 0.434210
vt 0.198454 0.434210
vt 0.177947 0.345062
vt 0.680233 0.709559
vt 0.680233 0.579587
vt 0.702856 0.558035
vt 0.702856 0.709559
vt 0.566018 0.579587
vt 0.566018 0.556718
vt 0.465985 0.015593
vt 0.446048 0.104741
vt 0.423179 0.104741
vt 0.443115 0.015593
vt 0.229406 0.431095
vt 0.209470 0.341948
vt 0.232339 0.341948
vt 0.252275 0.431095
vt 0.669702 0.608483
vt 0.669702 0.722698
vt 0.648149 0.745321
vt 0.646833 0.608483
vt 0.799675 0.722698
vt 0.799675 0.745321
vt 0.454270 0.104736
vt 0.474206 0.015589
vt 0.497399 0.015589
vt 0.476893 0.104736
vt 0.335484 0.731856
vt 0.351033 0.585899
vt 0.379394 0.572560
vt 0.362248 0.749412
vt 0.129505 0.510781
vt 0.131962 0.487717
vt 0.313509 0.615190
vt 0.174463 0.568165
vt 0.169734 0.536507
vt 0.337502 0.595025
vt 0.288916 0.847811
vt 0.310888 0.855242
vn 0.000000 0.224173 0.974549
vn 0.000000 0.224173 0.974549
vn 0.000000 0.224173 0.974549
vn 0.000000 0.224173 0.974549
vn 0.975643 0.219190 0.008734
vn 0.975643 0.219190 0.008734
vn 0.975643 0.219190 0.008734
vn 0.975643 0.219190 0.008734
vn -0.975643 0.219190 0.008735
vn -0.975643 0.219190 0.008735
vn -0.975643 0.219190 0.008735
vn -0.975643 0.219190 0.008735
vn 0.000000 0.224173 0.974549
vn 0.000000 0.224173 0.974549
vn 0.000000 0.224173 0.974549
vn 0.000000 0.224173 0.974549
vn 0.000000 0.999955 0.009484
vn 0.000000 0.999955 0.009484
vn 0.000000 0.999955 0.009484
vn 0.000000 0.999955 0.009484
vn 0.000000 1.000000 0.000000
vn 0.000000 1.000000 0.000000
vn 0.000000 1.000000 0.000000
vn 0.000000 1.000000 0.000000
vn 0.000000 0.993244 -0.116043
vn 0.000000 0.993244 -0.116043
vn 0.000000 0.993244 -0.116043
vn 0.000000 0.993244 -0.116043
vn 0.000000 1.000000 0.000000
vn 0.000000 1.000000 0.000000
vn 0.000000 1.000000 0.000000
vn 0.000000 1.000000 0.000000
vn -0.976119 0.217235 0.000142
vn -0.975895 0.218241 0.000000
vn -0.976110 0.217275 0.000127
vn 0.976110 0.217275 0.000127
vn 0.975895 0.218241 0.000000
vn 0.976119 0.217235 0.000142
vn -0.000325 0.219363 0.975643
vn -0.000395 0.219308 0.975656
vn 0.000000 0.219489 0.975615
vn 0.000000 0.222323 0.974973
vn 0.000000 0.222323 0.974973
vn 0.000000 0.222323 0.974973
vn 0.000000 0.222323 0.974973
vn 0.000000 0.219489 0.975615
vn 0.000395 0.219308 0.975656
vn 0.000325 0.219363 0.975643
vn -0.976195 0.216897 0.000000
vn -0.976139 0.217147 0.000138
vn -0.976133 0.217172 0.000151
vn 0.000000 0.208036 -0.978121
vn 0.000000 0.208036 -0.978121
vn 0.000000 0.208036 -0.978121
vn 0.000000 0.208036 -0.978121
vn 0.000000 0.321642 -0.946861
vn 0.000000 0.321642 -0.946861
vn 0.000000 0.321642 -0.946861
vn 0.000000 0.321642 -0.946861
vn 0.000000 0.208035 -0.978121
vn 0.000000 0.208035 -0.978121
vn 0.000000 0.208035 -0.978121
vn 0.000000 0.208035 -0.978121
vn 0.976139 0.217147 0.000138
vn 0.976133 0.217172 0.000151
vn 0.976195 0.216897 0.000000
vn -0.960341 0.221174 -0.169784
vn -0.966065 0.257867 -0.014923
vn -0.966065 0.257867 -0.014923
vn -0.962572 0.226546 -0.148771
vn 0.000000 0.456815 0.889562
vn -0.020087 0.431988 0.901656
vn -0.007033 0.408496 0.912733
vn 0.966065 0.257867 -0.014923
vn 0.960341 0.221174 -0.169784
vn 0.962572 0.226546 -0.148771
vn 0.966065 0.257867 -0.014923
vn 0.941568 0.191791 -0.276885
vn 0.941568 0.191791 -0.276885
vn -0.941568 0.191791 -0.276885
vn -0.941568 0.191791 -0.276885
vn 0.999987 -0.005174 0.000000
vn 0.999987 -0.005174 0.000000
vn 0.999987 -0.005174 0.000000
vn 0.999987 -0.005174 0.000000
vn 0.000000 1.000000 0.000000
vn 0.000000 1.000000 0.000000
vn 0.000000 1.000000 0.000000
vn 0.000000 1.000000 0.000000
vn 0.000000 1.000000 0.000000
vn 0.000000 1.000000 0.000000
vn 0.000000 0.000000 -1.000000
vn 0.000000 0.000000 -1.000000
vn 0.000000 0.000000 -1.000000
vn 0.000000 0.000000 -1.000000
vn 0.000000 0.000000 -1.000000
vn 0.000000 0.000000 -1.000000
vn 0.000000 0.000000 -1.000000
vn 0.000000 0.000000 -1.000000
vn 0.000000 1.000000 0.000000
vn 0.000000 1.000000 0.000000
vn 0.000000 1.000000 0.000000
vn 0.000000 1.000000 0.000000
vn -0.999987 -0.005173 0.000000
vn -0.999987 -0.005173 0.000000
vn -0.999987 -0.005173 0.000000
vn -0.999987 -0.005173 0.000000
vn 0.000000 1.000000 0.000000
vn 0.000000 1.000000 0.000000
vn 0.000000 0.218242 0.975895
vn 0.000370 0.219081 0.975707
vn -0.000000 0.218242 0.975895
vn -0.000370 0.219081 0.975707
vn 0.000000 1.000000 0.000000
vn 0.000000 1.000000 0.000000
vn 0.000000 1.000000 0.000000
vn 0.000000 1.000000 0.000000
vn 0.000470 0.219307 0.975656
vn -0.000470 0.219307 0.975656
vn 0.020087 0.431988 0.901656
vn 0.007033 0.408496 0.912733
vn 0.010176 0.405844 0.913886
vn -0.999908 -0.013398 0.002201
vn -0.999984 -0.005638 0.000926
vn -0.999975 -0.007004 0.001151
vn -0.999908 -0.013398 0.002201
vn 0.999984 -0.005638 0.000926
vn 0.999908 -0.013398 0.002201
vn 0.999908 -0.013398 0.002201
vn 0.999975 -0.007004 0.001151
vn -1.000000 0.000000 0.000000
vn -1.000000 0.000000 0.000000
vn 1.000000 -0.000000 -0.000000
vn 1.000000 -0.000000 -0.000000
vn 0.000000 0.456815 0.889562
vn -0.010176 0.405844 0.913886
s off
g source1
usemtl polySurface560SG18
f 1/1/1 31/2/2 32/3/3 33/4/4
f 2/5/5 36/6/6 37/7/7 38/8/8
f 34/9/9 1/10/10 33/11/11 35/12/12
f 40/13/13 39/14/14 2/15/15 38/16/16
f 50/17/17 49/18/18 51/19/19 52/20/20
s 1
usemtl polySurface560SG52
f 9/21/21 15/22/22 4/23/23 6/24/24
s off
usemtl polySurface560SG18
f 26/27/25 25/28/26 27/29/27 28/30/28
s 2
usemtl polySurface560SG52
f 3/31/29 16/32/30 12/33/31 5/34/32
s 3
f 7/37/33 17/38/34 23/39/35
s 4
f 24/43/36 18/44/37 8/45/38
s 5
f 4/49/39 20/50/40 19/51/41
s off
usemtl polySurface560SG18
f 49/55/42 47/56/43 48/57/44 51/58/45
s 6
usemtl polySurface560SG52
f 22/59/46 21/60/47 3/61/48
s 3
f 23/39/35 22/42/49 3/40/50
f 7/37/33 23/39/35 3/40/50 5/41/51
s off
f 5/65/52 12/66/53 13/67/54 7/68/55
usemtl polySurface560SG18
f 26/69/56 28/70/57 29/71/58 30/72/59
usemtl polySurface560SG52
f 9/73/60 6/74/61 8/75/62 10/76/63
s 4
f 4/46/64 24/43/36 8/45/38 6/47/65
f 19/48/66 24/43/36 4/46/64
s 7
usemtl polySurface560SG18
f 12/77/67 16/78/68 25/79/69 26/80/70
s 8
f 46/83/71 15/84/72 52/85/73
s 9
f 15/91/74 9/92/75 28/93/76 27/94/77
f 9/92/75 10/95/78 29/96/79 28/93/76
s 7
f 13/81/80 12/77/67 26/80/70 30/82/81
s off
f 14/97/82 21/98/83 32/99/84 31/100/85
s 10
f 21/101/86 22/102/87 33/103/88 32/104/89
f 22/102/87 23/105/90 35/106/91 33/103/88
s off
f 23/107/92 17/108/93 34/109/94 35/110/95
f 18/111/96 24/112/97 37/113/98 36/114/99
s 11
f 24/115/100 19/116/101 38/117/102 37/118/103
s off
f 20/121/104 11/122/105 39/123/106 40/124/107
s 11
f 19/116/101 20/119/108 40/120/109 38/117/102
s 6
usemtl polySurface560SG52
f 21/60/47 14/64/110 41/62/111
s 5
f 11/54/112 20/50/40 42/53/113
s 2
f 16/32/30 3/31/29 43/35/114 44/36/115
s 1
f 4/23/23 15/22/22 46/25/116 45/26/117
s 6
f 3/61/48 21/60/47 41/62/111 43/63/118
s 5
f 20/50/40 4/49/39 45/52/119 42/53/113
s 8
usemtl polySurface560SG18
f 16/89/120 50/88/121 25/87/122
s 13
f 44/125/123 43/126/124 49/127/125 50/128/126
s 14
f 45/131/127 46/132/128 52/133/129 51/134/130
s 13
f 43/126/124 41/129/131 47/130/132 49/127/125
s 14
f 42/135/133 45/131/127 51/134/130 48/136/134
s 8
f 16/89/120 44/90/135 50/88/121
f 52/85/73 15/84/72 27/86/136
f 27/86/136 25/87/122 50/88/121 52/85/73
